<svg width="620" height="439" viewBox="0 0 620 439" fill="none" xmlns="http://www.w3.org/2000/svg">
<g clip-path="url(#clip0)">
<path d="M480.386 284.159L60.481 338.598L61.7408 62.1468L559.617 64.4157L480.386 284.159Z" fill="#D8B969"/>
<path d="M324.561 144.889L99.1574 143.862L99.3901 92.8148L324.793 93.842L324.561 144.889ZM100.489 142.542L323.241 143.557L323.461 95.1619L100.71 94.1468L100.489 142.542Z" fill="#3F3D56"/>
<path d="M142.403 110.248L117.211 110.133L117.096 135.325L142.289 135.44L142.403 110.248Z" fill="#CFCCE0"/>
<path d="M138.989 132.11L112.471 131.989L112.592 105.471L139.11 105.592L138.989 132.11ZM113.803 130.67L137.669 130.778L137.778 106.912L113.912 106.803L113.803 130.67Z" fill="#3F3D56"/>
<path d="M298.857 111.624L180.852 111.086L180.845 112.412L298.851 112.95L298.857 111.624Z" fill="#3F3D56"/>
<path d="M298.814 120.905L180.809 120.367L180.803 121.693L298.808 122.231L298.814 120.905Z" fill="#3F3D56"/>
<path d="M298.772 130.187L180.767 129.649L180.761 130.975L298.766 131.512L298.772 130.187Z" fill="#3F3D56"/>
<path d="M323.902 289.413L98.4988 288.385L98.7314 237.338L324.135 238.365L323.902 289.413ZM99.8308 287.065L322.582 288.081L322.803 239.685L100.051 238.67L99.8308 287.065Z" fill="#3F3D56"/>
<path d="M141.745 254.771L116.553 254.656L116.438 279.849L141.63 279.963L141.745 254.771Z" fill="#CFCCE0"/>
<path d="M138.33 276.633L111.812 276.513L111.933 249.995L138.451 250.115L138.33 276.633ZM113.144 275.193L137.01 275.302L137.119 251.435L113.253 251.327L113.144 275.193Z" fill="#3F3D56"/>
<path d="M298.198 256.147L180.193 255.609L180.187 256.935L298.192 257.473L298.198 256.147Z" fill="#3F3D56"/>
<path d="M298.156 265.428L180.151 264.891L180.145 266.217L298.15 266.754L298.156 265.428Z" fill="#3F3D56"/>
<path d="M298.113 274.71L180.108 274.172L180.102 275.498L298.107 276.036L298.113 274.71Z" fill="#3F3D56"/>
<path d="M405.111 217.519L179.708 216.492L179.941 165.445L405.344 166.472L405.111 217.519ZM181.04 215.172L403.792 216.188L404.012 167.792L181.261 166.777L181.04 215.172Z" fill="#3F3D56"/>
<path d="M362.059 208.705L387.251 208.82L387.366 183.627L362.174 183.513L362.059 208.705Z" fill="#CFCCE0"/>
<path d="M391.907 205.526L365.389 205.405L365.51 178.887L392.028 179.008L391.907 205.526ZM366.721 204.085L390.587 204.194L390.696 180.328L366.829 180.219L366.721 204.085Z" fill="#3F3D56"/>
<path d="M323.72 184L205.714 183.463L205.708 184.788L323.713 185.326L323.72 184Z" fill="#3F3D56"/>
<path d="M323.677 193.282L205.672 192.744L205.666 194.07L323.671 194.608L323.677 193.282Z" fill="#3F3D56"/>
<path d="M323.635 202.563L205.63 202.025L205.624 203.351L323.629 203.889L323.635 202.563Z" fill="#3F3D56"/>
<path d="M359.157 130.002C364.985 130.028 369.731 125.325 369.758 119.497C369.785 113.668 365.081 108.922 359.253 108.895C353.425 108.869 348.678 113.572 348.652 119.4C348.625 125.229 353.329 129.975 359.157 130.002Z" fill="#CFCCE0"/>
<path d="M373.737 276.583C379.565 276.61 384.312 271.907 384.338 266.078C384.365 260.25 379.661 255.504 373.833 255.477C368.005 255.451 363.258 260.154 363.232 265.982C363.205 271.81 367.909 276.557 373.737 276.583Z" fill="#CFCCE0"/>
<path d="M138.065 201.257C143.893 201.284 148.64 196.581 148.666 190.752C148.693 184.924 143.989 180.178 138.161 180.151C132.333 180.125 127.586 184.828 127.56 190.656C127.533 196.484 132.237 201.231 138.065 201.257Z" fill="#CFCCE0"/>
<path d="M543.963 43.4129C536.692 30.9972 522.196 30.354 522.196 30.354C522.196 30.354 508.077 28.483 498.928 47.3002C490.4 64.8393 478.665 81.7577 496.875 85.9556L500.214 75.7224L502.203 86.7428C504.797 86.9413 507.401 86.9977 510.002 86.9117C529.526 86.3704 548.114 87.2697 547.547 80.2619C546.794 70.946 550.96 55.3593 543.963 43.4129Z" fill="#2F2E41"/>
<path d="M475.501 395.001L473.605 404.261L471.251 412.36C471.251 412.36 450.985 435.902 466.736 437.133C482.487 438.363 489.009 430.746 489.009 430.746L489.06 419.624L493.679 422.889L500.179 420.37L500.303 393.028L475.501 395.001Z" fill="#2F2E41"/>
<path d="M581.717 374.862L591.552 403.176C591.552 403.176 590.527 424.721 598.636 424.758C606.746 424.795 616.355 400.972 615.213 397.259C614.072 393.547 606.021 380.534 606.021 380.534L616.449 380.35L617.411 372.708L595.938 355.927L581.717 374.862Z" fill="#2F2E41"/>
<path d="M454.937 127.974C454.937 127.974 446.623 121.912 455.028 108.048C463.433 94.1831 475.788 77.7878 475.788 77.7878C475.788 77.7878 481.92 54.1811 488.626 57.2239C495.332 60.2667 483.644 82.6896 483.644 82.6896L471.011 109.047L454.937 127.974Z" fill="#FFB9B9"/>
<path d="M521.672 76.8384C531.909 76.885 540.246 68.6237 540.293 58.3862C540.339 48.1487 532.078 39.8118 521.841 39.7651C511.603 39.7185 503.266 47.9798 503.219 58.2173C503.173 68.4548 511.434 76.7917 521.672 76.8384Z" fill="#FFB9B9"/>
<path d="M510.808 70.996L517.423 93.9657L540.176 83.874C540.176 83.874 529.796 73.6314 533.769 66.2347L510.808 70.996Z" fill="#FFB9B9"/>
<path d="M518.598 90.2636L516.702 99.5235L503.899 112.441L514.023 128.243L541.785 86.8938L538.67 82.2208L518.598 90.2636Z" fill="#FFB9B9"/>
<path d="M514.208 87.4631C514.208 87.4631 536.034 77.5989 540.193 80.1667C544.353 82.7345 545.275 83.6656 545.275 83.6656C545.275 83.6656 520.251 95.5593 517.56 95.336C514.869 95.1126 514.208 87.4631 514.208 87.4631Z" fill="#CFCCE0"/>
<path d="M509.443 116.174C509.443 116.174 504.372 110.358 509.49 105.979L497.644 112.181L493.83 135.566L498.399 149.953L524.013 122.265L534.497 109.8L528.745 100.969C528.745 100.969 518.715 115.521 509.443 116.174Z" fill="#CFCCE0"/>
<path d="M600.33 358.264C587.687 386.939 525.494 407.509 525.494 407.509L497.793 282.954L502.814 401.381L422.701 388.272C422.701 388.272 426.226 326.653 446.955 252.368C462.743 195.795 480.7 163.826 488.369 151.796C490.768 148.03 492.16 146.218 492.16 146.218C491.968 145.661 491.785 145.105 491.611 144.551C488.506 134.278 487.795 123.43 489.531 112.839L502.998 106.876C502.998 106.876 509.968 102.737 512.301 99.2717C514.634 95.8067 517.648 95.357 517.648 95.357C519.242 101.62 499.943 116.13 499.943 116.13L499.81 145.326C499.81 145.326 501.668 144.407 506.144 128.208C510.621 112.008 530.631 93.7942 535.989 87.5624C541.347 81.3305 550.838 83.2275 550.838 83.2275L538.888 154.054L538.455 156.624L539.173 162.198L554.12 278.344L600.33 358.264Z" fill="#2F2E41"/>
<path d="M491.382 113.543L489.528 113.534C489.528 113.534 484.212 110.498 481.887 112.341C479.561 114.184 475.394 113.47 475.394 113.47L475.452 100.726C475.452 100.726 457.597 103.657 454.023 125.19C450.449 146.723 427.241 154.727 427.241 154.727C427.241 154.727 467.649 185.96 479.022 181.61C490.396 177.259 501.757 124.944 491.382 113.543Z" fill="#2F2E41"/>
<path d="M488.369 151.796C490.768 148.03 492.16 146.218 492.16 146.218C491.968 145.661 491.785 145.105 491.611 144.551L498.292 147.983L538.888 154.054L538.455 156.624L539.173 162.198L497.581 151.456L488.369 151.796Z" fill="#CFCCE0"/>
<path d="M531.672 170.496C531.672 170.496 535.644 214.076 562.518 215.125L559.592 145.366L547.289 150.176L531.672 170.496Z" fill="#2F2E41"/>
<path opacity="0.1" d="M531.672 170.496C531.672 170.496 535.644 214.076 562.518 215.125L559.592 145.366L547.289 150.176L531.672 170.496Z" fill="black"/>
<path d="M557.227 155.783L546.239 177.282C546.239 177.282 538.221 207.831 526.881 204.767C515.542 201.703 534.21 172.952 534.21 172.952L540.313 155.705L557.227 155.783Z" fill="#FFB9B9"/>
<path d="M547.12 85.5277L550.839 82.9958C550.839 82.9958 566.137 81.907 566.292 98.8227C566.446 115.738 568.953 175.763 565.9 184.786C562.847 193.809 565.762 215.14 565.762 215.14L560.189 217.663L554.657 160.405C554.657 160.405 552.581 158.31 549.558 160.845C546.534 163.38 528.163 177.663 528.163 177.663L547.12 85.5277Z" fill="#2F2E41"/>
<path d="M500.838 148.69L451.741 244.627L460.947 258.34L500.838 148.69Z" fill="#CFCCE0"/>
<path d="M498.46 148.635L501.954 256.349L487.779 264.826L498.46 148.635Z" fill="#CFCCE0"/>
<path d="M498.497 153.778C500.289 153.786 501.748 152.34 501.756 150.548C501.765 148.757 500.319 147.297 498.527 147.289C496.735 147.281 495.276 148.727 495.268 150.519C495.26 152.31 496.706 153.769 498.497 153.778Z" fill="#CFCCE0"/>
<path d="M523.922 40.9078C529.712 40.9342 534.427 36.2622 534.453 30.4726C534.48 24.683 529.808 19.9682 524.018 19.9418C518.228 19.9154 513.514 24.5874 513.487 30.377C513.461 36.1666 518.133 40.8814 523.922 40.9078Z" fill="#2F2E41"/>
<path d="M512.396 27.6133C512.408 25.0243 513.378 22.5313 515.118 20.6145C516.859 18.6978 519.247 17.4929 521.823 17.232C520.362 17.0697 518.883 17.2166 517.482 17.6631C516.081 18.1096 514.79 18.8458 513.692 19.8239C512.594 20.802 511.714 22.0001 511.11 23.3403C510.505 24.6806 510.189 26.133 510.183 27.6033C510.176 29.0735 510.479 30.5288 511.071 31.8745C511.663 33.2202 512.532 34.4262 513.621 35.4143C514.71 36.4023 515.994 37.1503 517.391 37.6096C518.788 38.0688 520.265 38.2292 521.728 38.0802C519.155 37.7958 516.778 36.5692 515.055 34.6367C513.332 32.7042 512.385 30.2024 512.396 27.6133Z" fill="#2F2E41"/>
<path d="M540.729 42.2044L526.44 34.6364L506.645 37.6158L502.471 55.672L512.66 55.3264L515.536 48.6988L515.506 55.2299L520.208 55.0705L522.984 44.5107L524.638 55.7731L541.35 55.508L540.729 42.2044Z" fill="#2F2E41"/>
<path d="M98.7255 263.883L99.065 263.157C98.9269 263.093 85.1389 256.486 74.7569 238.904C65.1695 222.669 56.6066 193.48 70.2584 146.628C75.9625 127.052 78.4385 109.549 77.6177 94.6032C76.947 82.3913 74.0809 71.8022 69.0989 63.1302C59.2494 45.9845 44.2784 42.0811 44.1284 42.0438L43.9345 42.8207C44.0815 42.8574 58.7455 46.6963 68.4172 63.551C79.5135 82.8883 79.8743 110.764 69.4894 146.404C63.4254 167.216 61.1817 186.337 62.8206 203.238C64.1336 216.777 67.9264 228.929 74.0938 239.357C84.6058 257.13 98.5854 263.817 98.7255 263.883Z" fill="#CFCCE0"/>
<path d="M55.1133 83.7215C72.2336 83.7995 86.1756 69.984 86.2537 52.8636C86.3317 35.7433 72.5162 21.8013 55.3958 21.7233C38.2755 21.6452 24.3335 35.4608 24.2555 52.5811C24.1774 69.7014 37.993 83.6434 55.1133 83.7215Z" fill="#CFCCE0"/>
<path d="M4.04752 56.0418C1.35587 48.1336 1.06972 39.6049 3.22525 31.5341C5.38077 23.4633 9.88117 16.2129 16.1573 10.6998C22.4335 5.1867 30.2035 1.65851 38.4849 0.561396C46.7662 -0.535722 55.1869 0.847503 62.6822 4.53615C70.1774 8.2248 76.4104 14.0532 80.5932 21.2843C84.7759 28.5154 86.7205 36.8245 86.1809 45.1608C85.6413 53.497 82.6419 61.4861 77.5618 68.1176C72.4818 74.7492 65.5494 79.7255 57.6412 82.4171C47.0363 86.0133 35.4379 85.256 25.3906 80.3114C15.3433 75.3668 7.66761 66.6386 4.04752 56.0418ZM4.80568 55.7838C7.44629 63.542 12.3282 70.343 18.834 75.3267C25.3399 80.3104 33.1774 83.253 41.3556 83.7823C49.5338 84.3116 57.6853 82.404 64.7794 78.3005C71.8734 74.1971 77.5912 68.0822 81.2099 60.7291C84.8286 53.376 86.1856 45.1149 85.1093 36.9906C84.0329 28.8663 80.5716 21.2436 75.1631 15.0864C69.7545 8.92928 62.6416 4.51423 54.7238 2.3996C46.806 0.284963 38.4389 0.56572 30.6807 3.20636C20.2849 6.75787 11.7223 14.288 6.87149 24.1448C2.02067 34.0015 1.27773 45.3799 4.80568 55.7838L4.80568 55.7838Z" fill="#CFCCE0"/>
<path d="M48.4478 154.983C62.6451 155.048 74.2068 143.591 74.2715 129.394C74.3362 115.196 62.8794 103.635 48.6821 103.57C34.4847 103.505 22.9231 114.962 22.8584 129.159C22.7937 143.357 34.2504 154.918 48.4478 154.983Z" fill="#CFCCE0"/>
<path d="M89.6013 235.22C103.799 235.285 115.36 223.828 115.425 209.63C115.49 195.433 104.033 183.871 89.8356 183.807C75.6383 183.742 64.0766 195.199 64.0119 209.396C63.9472 223.593 75.404 235.155 89.6013 235.22Z" fill="#CFCCE0"/>
<path d="M569.562 436.921L373.258 436.027L373.253 437.133L569.557 438.027L569.562 436.921Z" fill="#3F3D56"/>
</g>
<defs>
<clipPath id="clip0">
<rect width="617.118" height="435.436" fill="white" transform="translate(1.98431) rotate(0.261104)"/>
</clipPath>
</defs>
</svg>
