<svg width="539" height="257" viewBox="0 0 539 257" fill="none" xmlns="http://www.w3.org/2000/svg">
<rect x="185" y="95" width="354" height="34" rx="10" fill="#626334"/>
<rect x="72" y="187" width="273" height="13" rx="6.5" fill="#535428"/>
<rect y="130" width="165" height="47" rx="10" fill="#9E7B33"/>
<rect x="58" y="234" width="435" height="23" rx="10" fill="#9E7B33"/>
<g clip-path="url(#clip0)">
<path d="M308.197 210.782H63.1839C61.7498 210.781 60.3748 210.211 59.3607 209.197C58.3466 208.183 57.7762 206.809 57.7745 205.376V62.8139C57.7761 61.3805 58.3466 60.0063 59.3607 58.9927C60.3748 57.9791 61.7497 57.409 63.1839 57.4074H308.197C309.632 57.4091 311.006 57.9792 312.021 58.9928C313.035 60.0063 313.605 61.3805 313.607 62.8139V205.376C313.605 206.809 313.035 208.183 312.021 209.197C311.006 210.211 309.632 210.781 308.197 210.782Z" fill="#5C5C5C"/>
<path d="M323.471 230.734H47.9104V48.5025C47.9122 46.9005 48.5497 45.3646 49.6831 44.2318C50.8165 43.099 52.3533 42.4618 53.9561 42.4599H317.425C319.028 42.4618 320.565 43.099 321.698 44.2318C322.832 45.3646 323.469 46.9005 323.471 48.5025V230.734ZM49.1832 229.462H322.198V48.5025C322.197 47.2377 321.694 46.0252 320.799 45.1308C319.904 44.2365 318.691 43.7334 317.425 43.7321H53.9561C52.6907 43.7334 51.4775 44.2365 50.5827 45.1308C49.6878 46.0252 49.1845 47.2377 49.1832 48.5025V229.462Z" fill="#CCCCCC"/>
<path d="M185.691 52.955C187.097 52.955 188.236 51.8159 188.236 50.4107C188.236 49.0056 187.097 47.8665 185.691 47.8665C184.285 47.8665 183.145 49.0056 183.145 50.4107C183.145 51.8159 184.285 52.955 185.691 52.955Z" fill="#E6E6E6"/>
<path d="M247.103 180.528H124.278C122.844 180.526 121.469 179.956 120.455 178.942C119.441 177.929 118.87 176.555 118.869 175.121V93.0691C118.87 91.6358 119.441 90.2615 120.455 89.248C121.469 88.2344 122.844 87.6643 124.278 87.6626H247.103C248.537 87.6643 249.912 88.2345 250.926 89.248C251.94 90.2616 252.511 91.6358 252.513 93.0691V175.121C252.511 176.555 251.94 177.929 250.926 178.942C249.912 179.956 248.537 180.526 247.103 180.528Z" fill="white"/>
<path d="M144.484 122.646C143.477 122.646 142.493 122.347 141.655 121.788C140.818 121.229 140.166 120.434 139.78 119.505C139.395 118.575 139.294 117.552 139.49 116.565C139.687 115.577 140.172 114.671 140.884 113.959C141.596 113.247 142.503 112.763 143.491 112.567C144.478 112.37 145.502 112.471 146.432 112.856C147.362 113.241 148.158 113.893 148.717 114.73C149.276 115.567 149.575 116.551 149.575 117.557C149.573 118.906 149.037 120.2 148.082 121.154C147.128 122.108 145.834 122.644 144.484 122.646Z" fill="#CCCCCC"/>
<path d="M144.484 139.183C143.477 139.183 142.493 138.885 141.655 138.326C140.818 137.767 140.166 136.972 139.78 136.042C139.395 135.112 139.294 134.089 139.49 133.102C139.687 132.115 140.172 131.208 140.884 130.497C141.596 129.785 142.503 129.301 143.491 129.104C144.478 128.908 145.502 129.009 146.432 129.394C147.362 129.779 148.158 130.431 148.717 131.268C149.276 132.105 149.575 133.088 149.575 134.095C149.573 135.444 149.037 136.737 148.082 137.691C147.128 138.645 145.834 139.182 144.484 139.183Z" fill="#626334"/>
<path d="M144.484 155.721C143.477 155.721 142.493 155.423 141.655 154.863C140.818 154.304 140.166 153.51 139.78 152.58C139.395 151.65 139.294 150.627 139.49 149.64C139.687 148.653 140.172 147.746 140.884 147.034C141.596 146.323 142.503 145.838 143.491 145.642C144.478 145.445 145.502 145.546 146.432 145.931C147.362 146.316 148.158 146.969 148.717 147.805C149.276 148.642 149.575 149.626 149.575 150.633C149.573 151.982 149.037 153.275 148.082 154.229C147.128 155.183 145.834 155.719 144.484 155.721Z" fill="#626334"/>
<path d="M168.667 113.423C167.57 113.423 166.518 113.858 165.742 114.634C164.966 115.409 164.53 116.461 164.53 117.557C164.53 118.654 164.966 119.705 165.742 120.481C166.518 121.256 167.57 121.692 168.667 121.692H227.852C228.949 121.692 230.001 121.256 230.777 120.481C231.553 119.705 231.989 118.654 231.989 117.557C231.989 116.461 231.553 115.409 230.777 114.634C230.001 113.858 228.949 113.423 227.852 113.423H168.667Z" fill="#CCCCCC"/>
<path d="M168.667 129.96C167.57 129.96 166.518 130.396 165.742 131.171C164.966 131.947 164.53 132.998 164.53 134.095C164.53 135.191 164.966 136.243 165.742 137.018C166.518 137.794 167.57 138.229 168.667 138.229H227.852C228.949 138.229 230.001 137.794 230.777 137.018C231.553 136.243 231.989 135.191 231.989 134.095C231.989 132.998 231.553 131.947 230.777 131.171C230.001 130.396 228.949 129.96 227.852 129.96H168.667Z" fill="#626334"/>
<path d="M168.667 146.498C167.57 146.498 166.518 146.934 165.742 147.709C164.966 148.484 164.53 149.536 164.53 150.633C164.53 151.729 164.966 152.781 165.742 153.556C166.518 154.331 167.57 154.767 168.667 154.767H227.852C228.949 154.767 230.001 154.331 230.777 153.556C231.553 152.781 231.989 151.729 231.989 150.633C231.989 149.536 231.553 148.484 230.777 147.709C230.001 146.934 228.949 146.498 227.852 146.498H168.667Z" fill="#626334"/>
<path d="M447.116 238.732L439.315 238.601L436.108 208.465L447.622 208.658L447.116 238.732Z" fill="#FFB8B8"/>
<path d="M433.78 236.28L448.825 236.532L448.666 246L424.148 245.588C424.169 244.345 424.435 243.118 424.93 241.977C425.425 240.837 426.141 239.805 427.035 238.94C427.93 238.076 428.986 237.396 430.143 236.939C431.3 236.483 432.536 236.259 433.78 236.28Z" fill="#2F2E41"/>
<path d="M369.7 238.661L362.468 235.735L370.318 206.462L380.991 210.781L369.7 238.661Z" fill="#FFB8B8"/>
<path d="M358.138 231.58L372.086 237.223L368.531 246L345.801 236.804C346.744 234.476 348.574 232.618 350.887 231.638C353.201 230.659 355.809 230.638 358.138 231.58Z" fill="#2F2E41"/>
<path d="M395.775 125.893L372.865 186.319L363.319 228.299L373.501 233.388L419.958 143.067L437.141 233.706H447.323C447.323 233.706 451.979 126.202 445.197 117.779L395.775 125.893Z" fill="#2F2E41"/>
<path d="M367.372 192.051C377.274 192.051 385.301 184.029 385.301 174.132C385.301 164.236 377.274 156.213 367.372 156.213C357.471 156.213 349.444 164.236 349.444 174.132C349.444 184.029 357.471 192.051 367.372 192.051Z" fill="#626334"/>
<path d="M365.878 182.056L360.188 174.743L363.497 172.171L366.191 175.633L375.293 166.03L378.337 168.912L365.878 182.056Z" fill="white"/>
<path d="M406.912 42.2508C418.511 42.2508 427.913 32.8532 427.913 21.2607C427.913 9.66823 418.511 0.27066 406.912 0.27066C395.313 0.27066 385.911 9.66823 385.911 21.2607C385.911 32.8532 395.313 42.2508 406.912 42.2508Z" fill="#2F2E41"/>
<path d="M377.603 164.094C378.498 163.649 379.284 163.013 379.907 162.232C380.529 161.45 380.973 160.541 381.206 159.57C381.439 158.599 381.456 157.588 381.256 156.609C381.056 155.631 380.644 154.708 380.048 153.905L395.979 65.7852L381.113 65.5893L370.05 152.729C368.767 153.818 367.93 155.339 367.695 157.005C367.46 158.67 367.845 160.364 368.776 161.765C369.707 163.166 371.12 164.177 372.747 164.606C374.374 165.035 376.102 164.853 377.603 164.094H377.603Z" fill="#FFB8B8"/>
<path d="M468.894 146.882C469.456 146.027 469.818 145.057 469.954 144.044C470.091 143.03 469.998 141.998 469.682 141.025C469.367 140.052 468.837 139.163 468.131 138.422C467.426 137.681 466.563 137.107 465.606 136.744L437.159 67.6802C436.463 65.9899 435.406 64.4716 434.063 63.2308C432.72 61.99 431.123 61.0566 429.383 60.4954C427.642 59.9342 425.8 59.7587 423.985 59.9812C422.17 60.2037 420.425 60.8188 418.872 61.7838L456.55 141.14C456.065 142.725 456.169 144.432 456.844 145.946C457.519 147.46 458.718 148.68 460.222 149.379C461.726 150.079 463.432 150.211 465.025 149.752C466.619 149.294 467.993 148.274 468.894 146.882V146.882Z" fill="#FFB8B8"/>
<path d="M407.328 44.7913C415.96 44.7913 422.959 37.7969 422.959 29.1689C422.959 20.5409 415.96 13.5466 407.328 13.5466C398.695 13.5466 391.697 20.5409 391.697 29.1689C391.697 37.7969 398.695 44.7913 407.328 44.7913Z" fill="#FFB8B8"/>
<path d="M388.321 53.8699C397.337 50.1187 412.901 46.4113 430.184 54.4918C432.207 55.4341 434.007 56.7933 435.467 58.48C436.927 60.1668 438.013 62.143 438.655 64.279L446.051 89.0014L436.505 98.5423L445.414 118.26C445.414 118.26 411.367 138.932 396.093 126.211L386.865 93.4538L374.774 90.2735L378.899 65.7783C379.334 63.159 380.427 60.6929 382.075 58.6103C383.722 56.5278 385.872 54.8968 388.321 53.8699Z" fill="#CCCCCC"/>
<path d="M392.709 17.616C398.813 21.3404 405.695 23.6067 412.818 24.2387L410.699 21.7001C412.242 22.2705 413.866 22.5928 415.511 22.6551C416.334 22.679 417.151 22.5096 417.897 22.1607C418.643 21.8117 419.297 21.2928 419.806 20.6457C420.222 19.9737 420.469 19.2112 420.526 18.4231C420.583 17.6351 420.449 16.845 420.134 16.1201C419.488 14.6743 418.483 13.4177 417.213 12.4701C414.964 10.6914 412.309 9.49657 409.485 8.99217C406.661 8.48778 403.756 8.68944 401.029 9.5792C399.159 10.1379 397.484 11.212 396.196 12.6782C395.562 13.4169 395.123 14.301 394.916 15.2514C394.709 16.2018 394.741 17.1887 395.01 18.1235" fill="#2F2E41"/>
<path d="M389.785 3.71523C389.531 1.04376 386.257 -0.600897 383.696 0.206069C381.135 1.01304 379.454 3.58999 378.946 6.225C378.701 7.33472 378.679 8.48177 378.878 9.60038C379.078 10.719 379.497 11.7872 380.111 12.7437C380.746 13.688 381.638 14.4304 382.682 14.8827C383.727 15.3349 384.879 15.4779 386.002 15.2947C388.535 14.7552 390.289 12.2836 390.791 9.7447C391.293 7.20578 390.795 4.58818 390.297 2.04842" fill="#2F2E41"/>
<path d="M433.06 4.98735C432.806 2.31589 429.532 0.671228 426.971 1.47819C424.41 2.28516 422.729 4.86212 422.221 7.49713C421.977 8.60685 421.954 9.7539 422.154 10.8725C422.353 11.9911 422.772 13.0593 423.386 14.0158C424.021 14.9601 424.913 15.7026 425.957 16.1548C427.002 16.607 428.154 16.75 429.277 16.5668C431.81 16.0273 433.565 13.5557 434.067 11.0168C434.569 8.4779 434.07 5.8603 433.572 3.32054" fill="#2F2E41"/>
<path d="M328.244 222.466H317.107V220.557C317.107 219.883 316.839 219.236 316.361 218.758C315.884 218.281 315.237 218.013 314.561 218.013H301.197C300.522 218.013 299.874 218.281 299.397 218.758C298.92 219.236 298.651 219.883 298.651 220.557V222.466H296.742V220.557C296.742 219.883 296.474 219.236 295.997 218.758C295.519 218.281 294.872 218.013 294.197 218.013H280.832C280.157 218.013 279.51 218.281 279.032 218.758C278.555 219.236 278.287 219.883 278.287 220.557V222.466H276.377V220.557C276.377 219.883 276.109 219.236 275.632 218.758C275.154 218.281 274.507 218.013 273.832 218.013H260.467C259.792 218.013 259.145 218.281 258.667 218.758C258.19 219.236 257.922 219.883 257.922 220.557V222.466H256.013V220.557C256.013 219.883 255.745 219.236 255.267 218.758C254.79 218.281 254.142 218.013 253.467 218.013H240.103C239.428 218.013 238.78 218.281 238.303 218.758C237.825 219.236 237.557 219.883 237.557 220.557V222.466H235.648V220.557C235.648 219.883 235.38 219.236 234.902 218.758C234.425 218.281 233.777 218.013 233.102 218.013H219.738C219.063 218.013 218.415 218.281 217.938 218.758C217.461 219.236 217.192 219.883 217.192 220.557V222.466H215.283V220.557C215.283 219.883 215.015 219.236 214.538 218.758C214.06 218.281 213.413 218.013 212.738 218.013H199.373C198.698 218.013 198.051 218.281 197.573 218.758C197.096 219.236 196.828 219.883 196.828 220.557V222.466H194.918V220.557C194.918 219.883 194.65 219.236 194.173 218.758C193.695 218.281 193.048 218.013 192.373 218.013H179.008C178.333 218.013 177.686 218.281 177.208 218.758C176.731 219.236 176.463 219.883 176.463 220.557V222.466H174.554V220.557C174.554 219.883 174.285 219.236 173.808 218.758C173.331 218.281 172.683 218.013 172.008 218.013H158.644C157.969 218.013 157.321 218.281 156.844 218.758C156.366 219.236 156.098 219.883 156.098 220.557V222.466H154.189V220.557C154.189 219.883 153.921 219.236 153.443 218.758C152.966 218.281 152.318 218.013 151.643 218.013H138.279C137.604 218.013 136.956 218.281 136.479 218.758C136.002 219.236 135.733 219.883 135.733 220.557V222.466H133.824V220.557C133.824 219.883 133.556 219.236 133.079 218.758C132.601 218.281 131.954 218.013 131.279 218.013H117.914C117.239 218.013 116.592 218.281 116.114 218.758C115.637 219.236 115.369 219.883 115.369 220.557V222.466H113.459V220.557C113.459 219.883 113.191 219.236 112.714 218.758C112.236 218.281 111.589 218.013 110.914 218.013H97.5494C96.8743 218.013 96.2268 218.281 95.7494 218.758C95.272 219.236 95.0038 219.883 95.0038 220.557V222.466H93.0947V220.557C93.0947 219.883 92.8265 219.236 92.3491 218.758C91.8717 218.281 91.2242 218.013 90.5491 218.013H77.1847C76.5096 218.013 75.8621 218.281 75.3847 218.758C74.9073 219.236 74.6391 219.883 74.6391 220.557V222.466H72.7299V220.557C72.7299 219.883 72.4617 219.236 71.9843 218.758C71.5069 218.281 70.8594 218.013 70.1843 218.013H56.8199C56.1448 218.013 55.4973 218.281 55.0199 218.758C54.5425 219.236 54.2743 219.883 54.2743 220.557V222.466H43.1373C38.327 222.466 33.7137 224.376 30.3123 227.775C26.9109 231.175 25 235.786 25 240.593V240.593C25 242.027 25.5699 243.403 26.5844 244.416C27.5988 245.43 28.9747 246 30.4094 246H340.972C342.407 246 343.783 245.43 344.797 244.416C345.811 243.403 346.381 242.027 346.381 240.593V240.593C346.381 235.786 344.47 231.175 341.069 227.775C337.668 224.376 333.054 222.466 328.244 222.466Z" fill="#3F3D56"/>
</g>
<defs>
<clipPath id="clip0">
<rect width="445" height="246" fill="white" transform="translate(25)"/>
</clipPath>
</defs>
</svg>
