<svg width="546" height="380" viewBox="0 0 546 380" fill="none" xmlns="http://www.w3.org/2000/svg">
<g clip-path="url(#clip0)">
<path d="M497.046 198.14C489.684 219.044 479.428 238.803 466.579 256.833C466.283 257.252 465.982 257.662 465.679 258.079L426.694 245.398C426.87 244.994 427.062 244.541 427.268 244.046C439.545 214.876 513.435 37.0695 505.589 0C506.338 3.04395 530.819 103.751 497.046 198.14Z" fill="#E6E6E6"/>
<path d="M474.1 259.28C473.624 259.64 473.134 259.996 472.639 260.343L443.393 250.83C443.743 250.505 444.15 250.122 444.618 249.69C452.274 242.503 475.018 220.968 497.046 198.14C520.718 173.607 543.569 147.585 546 136.267C545.543 138.849 531.119 217.408 474.1 259.28Z" fill="#E6E6E6"/>
<path d="M518.157 380H16.8104C12.352 380 8.07622 378.221 4.92365 375.055C1.77109 371.888 0 367.594 0 363.116C181.738 341.901 360.06 341.901 534.967 363.116C534.967 367.594 533.196 371.888 530.043 375.055C526.891 378.221 522.615 380 518.157 380Z" fill="#2F2E41"/>
<path d="M534.967 364.109L0 363.116L62.0008 258.333L62.2975 257.836V26.9065C62.2972 24.1035 62.8467 21.3279 63.9146 18.7382C64.9824 16.1485 66.5477 13.7955 68.521 11.8135C70.4943 9.83148 72.8371 8.25931 75.4154 7.18676C77.9937 6.11421 80.7571 5.5623 83.5478 5.56253H448.453C451.243 5.5623 454.007 6.11422 456.585 7.18677C459.163 8.25932 461.506 9.83149 463.479 11.8135C465.453 13.7955 467.018 16.1485 468.086 18.7382C469.154 21.3279 469.703 24.1035 469.703 26.9065V259.425L534.967 364.109Z" fill="#3F3D56"/>
<path d="M83.0633 20.4606C81.2281 20.4626 79.4687 21.1958 78.171 22.4992C76.8734 23.8026 76.1434 25.5697 76.1414 27.413V237.972C76.1435 239.815 76.8735 241.582 78.1711 242.886C79.4688 244.189 81.2281 244.922 83.0633 244.924H451.904C453.739 244.922 455.498 244.189 456.796 242.886C458.094 241.582 458.824 239.815 458.826 237.972V27.413C458.824 25.5698 458.094 23.8026 456.796 22.4993C455.498 21.1959 453.739 20.4627 451.904 20.4606H83.0633Z" fill="white"/>
<path d="M85.4872 272.734C84.9201 272.735 84.3651 272.899 83.8876 273.206C83.4101 273.513 83.03 273.951 82.792 274.468L63.6877 316.183C63.4797 316.637 63.3887 317.136 63.4231 317.634C63.4575 318.133 63.6162 318.615 63.8846 319.036C64.153 319.456 64.5224 319.803 64.9589 320.042C65.3953 320.282 65.8849 320.408 66.3824 320.408H468.137C468.643 320.408 469.14 320.278 469.582 320.031C470.024 319.783 470.395 319.427 470.661 318.995C470.926 318.562 471.078 318.069 471.1 317.562C471.123 317.055 471.016 316.55 470.79 316.096L450.024 274.381C449.779 273.885 449.401 273.468 448.932 273.177C448.463 272.886 447.923 272.733 447.371 272.734L85.4872 272.734Z" fill="#2F2E41"/>
<path d="M266 16.9844C268.458 16.9844 270.45 14.9833 270.45 12.5149C270.45 10.0466 268.458 8.04553 266 8.04553C263.543 8.04553 261.55 10.0466 261.55 12.5149C261.55 14.9833 263.543 16.9844 266 16.9844Z" fill="white"/>
<path d="M226.511 328.353C225.859 328.354 225.225 328.571 224.707 328.969C224.19 329.367 223.817 329.926 223.647 330.558L218.855 348.436C218.736 348.877 218.72 349.34 218.809 349.789C218.897 350.238 219.087 350.66 219.364 351.023C219.641 351.386 219.998 351.68 220.406 351.883C220.814 352.085 221.263 352.19 221.719 352.19H312.855C313.327 352.19 313.794 352.077 314.214 351.859C314.634 351.641 314.997 351.326 315.271 350.939C315.545 350.552 315.723 350.105 315.79 349.635C315.858 349.164 315.812 348.685 315.657 348.236L309.496 330.358C309.294 329.773 308.916 329.266 308.413 328.906C307.911 328.547 307.309 328.354 306.693 328.354L226.511 328.353Z" fill="#2F2E41"/>
<path d="M469.703 254.36V258.333H62.0005L62.3077 257.836V254.36H469.703Z" fill="#2F2E41"/>
<path d="M342.95 57.662H246.756V59.4267H342.95C347.685 59.4267 352.227 61.3163 355.576 64.6798C358.925 68.0434 360.806 72.6053 360.806 77.3621C360.806 82.1188 358.925 86.6807 355.576 90.0443C352.227 93.4078 347.685 95.2974 342.95 95.2974H197.392C192.656 95.2974 188.114 93.4078 184.765 90.0443C181.417 86.6807 179.535 82.1188 179.535 77.3621C179.535 72.6053 181.417 68.0434 184.765 64.6798C188.114 61.3163 192.656 59.4267 197.392 59.4267H202.832V57.662H197.392C192.192 57.665 187.206 59.7419 183.53 63.4361C179.855 67.1302 177.79 72.1393 177.79 77.3621C177.79 82.5848 179.855 87.5939 183.53 91.288C187.206 94.9822 192.192 97.0591 197.392 97.0621H342.95C345.526 97.0637 348.078 96.5552 350.459 95.5659C352.84 94.5765 355.003 93.1257 356.826 91.2962C358.649 89.4667 360.094 87.2945 361.081 84.9036C362.067 82.5127 362.575 79.9501 362.575 77.3621C362.575 74.774 362.067 72.2114 361.081 69.8205C360.094 67.4296 358.649 65.2574 356.826 63.4279C355.003 61.5984 352.84 60.1476 350.459 59.1582C348.078 58.1689 345.526 57.6604 342.95 57.662Z" fill="#E6E6E6"/>
<path d="M342.95 118.545H246.756V120.309H342.95C347.684 120.312 352.223 122.203 355.569 125.566C358.916 128.93 360.795 133.49 360.795 138.245C360.795 143 358.916 147.56 355.569 150.923C352.223 154.286 347.684 156.177 342.95 156.18H197.392C192.656 156.18 188.114 154.29 184.765 150.927C181.417 147.563 179.535 143.001 179.535 138.245C179.535 133.488 181.417 128.926 184.765 125.562C188.114 122.199 192.656 120.309 197.392 120.309H202.832V118.545H197.392C192.192 118.548 187.206 120.625 183.53 124.319C179.855 128.013 177.79 133.022 177.79 138.245C177.79 143.467 179.855 148.476 183.53 152.171C187.206 155.865 192.192 157.942 197.392 157.945H342.95C345.526 157.946 348.078 157.438 350.459 156.449C352.84 155.459 355.003 154.008 356.826 152.179C358.649 150.349 360.094 148.177 361.081 145.786C362.067 143.395 362.575 140.833 362.575 138.245C362.575 135.657 362.067 133.094 361.081 130.703C360.094 128.312 358.649 126.14 356.826 124.31C355.003 122.481 352.84 121.03 350.459 120.041C348.078 119.051 345.526 118.543 342.95 118.545Z" fill="#E6E6E6"/>
<path d="M342.949 179.427H246.756V181.192H342.949C347.685 181.192 352.227 183.082 355.576 186.445C358.925 189.809 360.806 194.371 360.806 199.127C360.806 203.884 358.925 208.446 355.576 211.81C352.227 215.173 347.685 217.063 342.949 217.063H197.392C192.656 217.063 188.114 215.173 184.765 211.81C181.416 208.446 179.535 203.884 179.535 199.127C179.535 194.371 181.416 189.809 184.765 186.445C188.114 183.082 192.656 181.192 197.392 181.192H202.831V179.427H197.392C192.19 179.427 187.201 181.503 183.523 185.197C179.845 188.892 177.778 193.903 177.778 199.127C177.778 204.352 179.845 209.363 183.523 213.057C187.201 216.752 192.19 218.827 197.392 218.827H342.949C345.525 218.827 348.076 218.318 350.455 217.328C352.835 216.338 354.997 214.887 356.818 213.057C358.64 211.228 360.084 209.056 361.07 206.666C362.056 204.276 362.563 201.714 362.563 199.127C362.563 196.54 362.056 193.979 361.07 191.588C360.084 189.198 358.64 187.027 356.818 185.197C354.997 183.368 352.835 181.917 350.455 180.927C348.076 179.937 345.525 179.427 342.949 179.427Z" fill="#E6E6E6"/>
<path d="M213.689 52.9999C212.318 53.0222 211.011 53.5848 210.05 54.5663C209.088 55.5478 208.55 56.8695 208.55 58.2464C208.55 59.6233 209.088 60.945 210.05 61.9265C211.011 62.908 212.318 63.4706 213.689 63.4929H236.605C237.291 63.5043 237.972 63.3797 238.61 63.1265C239.248 62.8733 239.831 62.4964 240.324 62.0172C240.817 61.538 241.211 60.966 241.484 60.3338C241.757 59.7015 241.903 59.0215 241.914 58.3325C241.926 57.6436 241.802 56.9591 241.549 56.3182C241.297 55.6774 240.922 55.0926 240.445 54.5975C239.968 54.1023 239.398 53.7063 238.769 53.4322C238.139 53.1581 237.462 53.0112 236.776 52.9999C236.719 52.9989 236.662 52.9989 236.605 52.9999H213.689Z" fill="#3F3D56"/>
<path d="M213.689 114.765C212.318 114.787 211.011 115.35 210.05 116.331C209.088 117.313 208.55 118.634 208.55 120.011C208.55 121.388 209.088 122.71 210.05 123.691C211.011 124.673 212.318 125.236 213.689 125.258H236.605C237.99 125.281 239.328 124.75 240.324 123.782C241.319 122.814 241.891 121.489 241.914 120.098C241.937 118.706 241.408 117.363 240.445 116.362C239.481 115.362 238.162 114.788 236.776 114.765C236.719 114.764 236.662 114.764 236.605 114.765H213.689Z" fill="#3F3D56"/>
<path d="M213.689 174.765C212.318 174.788 211.012 175.35 210.05 176.332C209.089 177.313 208.55 178.635 208.55 180.012C208.55 181.388 209.089 182.71 210.05 183.692C211.012 184.673 212.318 185.236 213.689 185.258H236.605C237.99 185.281 239.328 184.75 240.324 183.782C241.319 182.815 241.892 181.489 241.914 180.098C241.937 178.706 241.409 177.363 240.445 176.363C239.481 175.363 238.162 174.788 236.777 174.765C236.719 174.764 236.662 174.764 236.605 174.765H213.689Z" fill="#3F3D56"/>
<path d="M204.6 72.1155C203.229 72.1379 201.922 72.7005 200.961 73.6819C199.999 74.6634 199.46 75.9851 199.46 77.362C199.46 78.7389 199.999 80.0606 200.961 81.0421C201.922 82.0236 203.229 82.5862 204.6 82.6086H335.57C336.256 82.6199 336.937 82.4954 337.575 82.2422C338.214 81.9889 338.796 81.612 339.289 81.1328C339.782 80.6536 340.176 80.0816 340.449 79.4494C340.722 78.8172 340.868 78.1371 340.879 77.4482C340.891 76.7592 340.767 76.0747 340.514 75.4339C340.262 74.793 339.887 74.2083 339.41 73.7131C338.933 73.2179 338.363 72.822 337.734 72.5478C337.104 72.2737 336.427 72.1268 335.741 72.1155C335.684 72.1145 335.627 72.1145 335.57 72.1155H204.6Z" fill="#D8B969"/>
<path d="M204.6 132.998C203.229 133.021 201.922 133.583 200.961 134.565C200 135.546 199.461 136.868 199.461 138.245C199.461 139.621 200 140.943 200.961 141.925C201.922 142.906 203.229 143.469 204.6 143.491H335.57C336.256 143.503 336.937 143.378 337.576 143.125C338.214 142.872 338.796 142.495 339.289 142.015C339.782 141.536 340.176 140.964 340.449 140.332C340.722 139.7 340.868 139.02 340.879 138.331C340.891 137.642 340.767 136.957 340.515 136.316C340.262 135.676 339.887 135.091 339.41 134.596C338.933 134.101 338.363 133.705 337.734 133.43C337.105 133.156 336.428 133.009 335.742 132.998C335.684 132.997 335.627 132.997 335.57 132.998H204.6Z" fill="#D8B969"/>
<path d="M204.6 193.881C203.229 193.903 201.922 194.466 200.961 195.447C200 196.429 199.461 197.75 199.461 199.127C199.461 200.504 200 201.826 200.961 202.807C201.922 203.789 203.229 204.351 204.6 204.374H335.57C336.256 204.385 336.937 204.261 337.576 204.007C338.214 203.754 338.796 203.377 339.289 202.898C339.782 202.419 340.176 201.847 340.449 201.215C340.722 200.582 340.868 199.902 340.879 199.213C340.891 198.524 340.767 197.84 340.515 197.199C340.262 196.558 339.887 195.974 339.41 195.478C338.933 194.983 338.363 194.587 337.734 194.313C337.105 194.039 336.428 193.892 335.742 193.881C335.684 193.88 335.627 193.88 335.57 193.881H204.6Z" fill="#E6E6E6"/>
<path d="M155.956 87.4555C161.733 87.4555 166.417 82.7515 166.417 76.9487C166.417 71.146 161.733 66.442 155.956 66.442C150.179 66.442 145.495 71.146 145.495 76.9487C145.495 82.7515 150.179 87.4555 155.956 87.4555Z" fill="#D8B969"/>
<path d="M154.986 81.2654L151.938 77.3299L153.71 75.9453L155.154 77.8087L160.028 72.6404L161.658 74.1919L154.986 81.2654Z" fill="white"/>
<path d="M155.956 148.338C161.733 148.338 166.417 143.634 166.417 137.831C166.417 132.029 161.733 127.325 155.956 127.325C150.179 127.325 145.495 132.029 145.495 137.831C145.495 143.634 150.179 148.338 155.956 148.338Z" fill="#D8B969"/>
<path d="M154.986 142.148L151.938 138.213L153.71 136.828L155.154 138.691L160.028 133.523L161.658 135.075L154.986 142.148Z" fill="white"/>
<path d="M155.956 209.221C161.733 209.221 166.417 204.517 166.417 198.714C166.417 192.911 161.733 188.207 155.956 188.207C150.179 188.207 145.495 192.911 145.495 198.714C145.495 204.517 150.179 209.221 155.956 209.221Z" fill="#E6E6E6"/>
<path d="M385.241 87.4555C391.019 87.4555 395.702 82.7515 395.702 76.9487C395.702 71.146 391.019 66.442 385.241 66.442C379.464 66.442 374.781 71.146 374.781 76.9487C374.781 82.7515 379.464 87.4555 385.241 87.4555Z" fill="#E6E6E6"/>
<path d="M385.241 148.338C391.019 148.338 395.702 143.634 395.702 137.831C395.702 132.029 391.019 127.325 385.241 127.325C379.464 127.325 374.781 132.029 374.781 137.831C374.781 143.634 379.464 148.338 385.241 148.338Z" fill="#E6E6E6"/>
<path d="M385.241 209.221C391.019 209.221 395.702 204.517 395.702 198.714C395.702 192.911 391.019 188.207 385.241 188.207C379.464 188.207 374.781 192.911 374.781 198.714C374.781 204.517 379.464 209.221 385.241 209.221Z" fill="#E6E6E6"/>
<path d="M154.986 203.031L151.938 199.095L153.71 197.711L155.154 199.574L160.028 194.406L161.658 195.957L154.986 203.031Z" fill="white"/>
<path d="M382.598 73.5739L381.728 74.4484L387.577 80.3236L388.448 79.4491L382.598 73.5739Z" fill="white"/>
<path d="M387.885 73.5739L382.036 79.4491L382.906 80.3236L388.756 74.4484L387.885 73.5739Z" fill="white"/>
<path d="M382.598 134.457L381.728 135.331L387.577 141.206L388.448 140.332L382.598 134.457Z" fill="white"/>
<path d="M387.885 134.457L382.036 140.332L382.906 141.206L388.756 135.331L387.885 134.457Z" fill="white"/>
<path d="M382.598 195.339L381.728 196.214L387.577 202.089L388.448 201.214L382.598 195.339Z" fill="white"/>
<path d="M387.885 195.339L382.036 201.214L382.906 202.089L388.756 196.214L387.885 195.339Z" fill="white"/>
<path d="M157.969 194.505C158.88 193.9 159.649 193.103 160.224 192.17C160.799 191.237 161.165 190.19 161.298 189.101C161.431 188.012 161.328 186.907 160.994 185.862C160.661 184.817 160.106 183.857 159.367 183.049L149.325 172.054L139.679 176.959L147.062 191.605C147.543 192.559 148.22 193.401 149.048 194.075C149.877 194.748 150.837 195.238 151.868 195.512C152.898 195.786 153.974 195.838 155.025 195.664C156.077 195.491 157.08 195.096 157.969 194.505Z" fill="#FFB8B8"/>
<path d="M28.1555 227.157C29.2406 227.031 30.2855 226.669 31.2179 226.097C32.1504 225.526 32.9484 224.758 33.5568 223.847C34.1652 222.935 34.5696 221.902 34.742 220.819C34.9144 219.735 34.8509 218.627 34.5556 217.571L30.541 203.206H19.7295V219.621C19.7295 220.692 19.9549 221.75 20.391 222.726C20.8271 223.703 21.464 224.576 22.2598 225.287C23.0556 225.999 23.9923 226.534 25.0085 226.856C26.0246 227.178 27.0971 227.281 28.1555 227.157Z" fill="#FFB8B8"/>
<path d="M90.605 335.526L111.027 332.309L102.618 323.46H90.605V335.526Z" fill="#FFB8B8"/>
<path d="M24.9351 336.33L46.1576 341.961C42.2488 333.817 39.8417 326.61 41.3525 321.852L31.3419 320.645L24.9351 336.33Z" fill="#FFB8B8"/>
<path d="M29.3396 322.656L41.7532 325.069L75.7893 214.869L90.2046 324.667H103.419L102.217 169.422H50.9628L29.3396 322.656Z" fill="#575A88"/>
<path d="M94.5145 340.41L114.715 333.736C115.251 333.559 115.743 333.268 116.157 332.883C116.57 332.498 116.897 332.028 117.114 331.505C117.331 330.982 117.433 330.418 117.414 329.851C117.394 329.285 117.254 328.73 117.001 328.223C116.655 327.527 116.111 326.949 115.439 326.563C114.767 326.176 113.995 325.998 113.223 326.051L108.64 326.362L106.844 325.346C106.655 325.24 106.438 325.194 106.222 325.217C106.006 325.241 105.803 325.331 105.64 325.475C105.477 325.62 105.364 325.811 105.315 326.024C105.266 326.236 105.284 326.459 105.366 326.66L107.022 330.7L90.2044 329.493L89.3747 336.161C89.2923 336.823 89.3779 337.495 89.6237 338.115C89.8694 338.735 90.2672 339.282 90.7801 339.706C91.293 340.13 91.9044 340.417 92.5573 340.54C93.2102 340.663 93.8835 340.619 94.5145 340.41Z" fill="#575A88"/>
<path d="M26.2396 343.478L48.1982 344.908C48.7808 344.946 49.3646 344.858 49.9101 344.649C50.4555 344.44 50.9498 344.115 51.3592 343.697C51.7686 343.279 52.0836 342.777 52.2827 342.226C52.4818 341.675 52.5604 341.087 52.5131 340.503C52.4482 339.7 52.1485 338.935 51.6517 338.303C51.1549 337.671 50.4832 337.201 49.721 336.951L45.2026 335.472L43.8691 333.801C43.7286 333.625 43.537 333.497 43.3209 333.436C43.1048 333.374 42.8749 333.382 42.6633 333.457C42.4517 333.533 42.2687 333.673 42.14 333.858C42.0112 334.043 41.943 334.263 41.9448 334.489L41.9811 339.009L26.3003 331.326L22.9396 337.405C22.6059 338.008 22.4296 338.687 22.427 339.377C22.4245 340.068 22.5959 340.748 22.9252 341.354C23.2545 341.96 23.731 342.472 24.3105 342.844C24.89 343.215 25.5536 343.433 26.2396 343.478Z" fill="#575A88"/>
<path d="M72.9862 82.5489C81.1687 82.5489 87.8019 75.8865 87.8019 67.6679C87.8019 59.4494 81.1687 52.7869 72.9862 52.7869C64.8037 52.7869 58.1704 59.4494 58.1704 67.6679C58.1704 75.8865 64.8037 82.5489 72.9862 82.5489Z" fill="#FFB8B8"/>
<path d="M63.376 95.0168H83.7977V75.3095H63.376C65.0636 81.3958 64.8454 88.0273 63.376 95.0168Z" fill="#FFB8B8"/>
<path d="M48.1598 171.433L104.219 172.237L109.825 112.751C109.825 108.87 108.615 105.086 106.365 101.931C104.114 98.7764 100.936 96.4087 97.2777 95.1606L88.6028 92.2015L83.7977 86.5708C77.731 85.254 71.1302 85.5732 64.1768 86.973L58.9713 94.6146L53.3656 96.4115C49.5562 97.6327 46.2453 100.065 43.932 103.341C41.6187 106.617 40.4285 110.559 40.5407 114.574C44.7119 136.214 47.9554 156.326 48.1598 171.433Z" fill="#D8B969"/>
<path d="M17.7273 203.206L31.7422 204.815L47.7593 140.062L49.361 98.2343L48.8881 98.4642C45.1808 100.266 41.9422 102.91 39.4288 106.187C36.9153 109.464 35.1962 113.284 34.4074 117.344L17.7273 203.206Z" fill="#D8B969"/>
<path d="M140.258 179.074L151.069 173.846L119.358 114.413C114.753 105.781 107.266 99.056 98.2131 95.419L104.22 133.225L140.258 179.074Z" fill="#D8B969"/>
<path d="M63.829 81.0616C63.829 81.0616 78.3572 80.1962 78.6717 77.6722C78.9862 75.1483 81.1074 69.3906 83.6203 69.7065C86.1332 70.0224 93.0975 61.6084 91.606 58.2165C90.1145 54.8246 83.0748 42.3365 68.7029 48.0923C54.3311 53.848 55.978 68.2825 57.4696 71.6744C58.9611 75.0663 63.829 81.0616 63.829 81.0616Z" fill="#2F2E41"/>
<path d="M419.38 263.46C419.221 263.461 419.067 263.513 418.941 263.61C418.815 263.707 418.724 263.843 418.683 263.997L417.516 268.351C417.487 268.458 417.483 268.571 417.504 268.68C417.526 268.79 417.572 268.892 417.64 268.981C417.707 269.069 417.794 269.141 417.893 269.19C417.993 269.239 418.102 269.265 418.213 269.265H440.406C440.521 269.265 440.635 269.237 440.737 269.184C440.839 269.131 440.928 269.055 440.994 268.96C441.061 268.866 441.105 268.757 441.121 268.643C441.137 268.528 441.126 268.411 441.088 268.302L439.588 263.949C439.539 263.806 439.447 263.683 439.324 263.595C439.202 263.508 439.056 263.461 438.905 263.46H419.38Z" fill="#D8B969"/>
<path d="M386.976 263.46C386.817 263.461 386.663 263.513 386.537 263.61C386.411 263.707 386.32 263.843 386.278 263.997L385.111 268.351C385.082 268.458 385.079 268.571 385.1 268.68C385.122 268.79 385.168 268.892 385.235 268.981C385.303 269.069 385.39 269.141 385.489 269.19C385.588 269.239 385.698 269.265 385.809 269.265H408.002C408.117 269.265 408.23 269.237 408.333 269.184C408.435 269.131 408.523 269.055 408.59 268.96C408.657 268.866 408.7 268.757 408.717 268.643C408.733 268.528 408.722 268.411 408.684 268.302L407.184 263.949C407.135 263.806 407.042 263.683 406.92 263.595C406.798 263.508 406.651 263.461 406.501 263.46H386.976Z" fill="#D8B969"/>
</g>
<defs>
<clipPath id="clip0">
<rect width="546" height="380" fill="white"/>
</clipPath>
</defs>
</svg>
