<svg width="149" height="42" viewBox="0 0 149 42" fill="none" xmlns="http://www.w3.org/2000/svg">
<path d="M28.6941 2.39876V33H21.6121V20.4535H7.71043V33H0.628432V2.39876H7.71043V14.4644H21.6121V2.39876H28.6941ZM58.4917 21.3278C58.4917 21.4152 58.448 22.0273 58.3606 23.1639H40.5682C40.8887 24.6211 41.6465 25.7723 42.8414 26.6175C44.0363 27.4626 45.5227 27.8852 47.3004 27.8852C48.5245 27.8852 49.6028 27.7104 50.5354 27.3606C51.4972 26.9818 52.3861 26.3989 53.2021 25.612L56.8305 29.5464C54.6156 32.082 51.3806 33.3497 47.1256 33.3497C44.4735 33.3497 42.1274 32.8397 40.0873 31.8197C38.0472 30.7705 36.4734 29.3279 35.366 27.4918C34.2585 25.6557 33.7047 23.5719 33.7047 21.2404C33.7047 18.938 34.2439 16.8688 35.3222 15.0327C36.4297 13.1675 37.9306 11.7249 39.825 10.7048C41.7485 9.65563 43.8906 9.13104 46.2513 9.13104C48.5536 9.13104 50.6374 9.62649 52.5026 10.6174C54.3679 11.6083 55.8251 13.0363 56.8743 14.9016C57.9526 16.7376 58.4917 18.8797 58.4917 21.3278ZM46.295 14.2895C44.7503 14.2895 43.4534 14.7267 42.4042 15.601C41.3551 16.4753 40.7139 17.6702 40.4807 19.1857H52.0655C51.8323 17.6994 51.1912 16.519 50.142 15.6447C49.0928 14.7413 47.8105 14.2895 46.295 14.2895ZM63.0321 0.56269H69.8518V33H63.0321V0.56269ZM90.0827 9.13104C92.2685 9.13104 94.2503 9.64106 96.0281 10.6611C97.8351 11.652 99.2485 13.0655 100.269 14.9016C101.289 16.7085 101.799 18.8214 101.799 21.2404C101.799 23.6593 101.289 25.7869 100.269 27.6229C99.2485 29.4299 97.8351 30.8433 96.0281 31.8634C94.2503 32.8543 92.2685 33.3497 90.0827 33.3497C87.0809 33.3497 84.7202 32.4025 83.0007 30.5082V41.4809H76.181V9.48076H82.6947V12.1912C84.3851 10.1511 86.8477 9.13104 90.0827 9.13104ZM88.9024 27.7541C90.651 27.7541 92.0791 27.1712 93.1866 26.0054C94.3232 24.8105 94.8915 23.2222 94.8915 21.2404C94.8915 19.2586 94.3232 17.6848 93.1866 16.519C92.0791 15.3241 90.651 14.7267 88.9024 14.7267C87.1538 14.7267 85.7111 15.3241 84.5745 16.519C83.467 17.6848 82.9133 19.2586 82.9133 21.2404C82.9133 23.2222 83.467 24.8105 84.5745 26.0054C85.7111 27.1712 87.1538 27.7541 88.9024 27.7541Z" fill="#626334"/>
<path d="M129.402 21.3278C129.402 21.4152 129.359 22.0273 129.271 23.1639H111.479C111.799 24.6211 112.557 25.7723 113.752 26.6175C114.947 27.4626 116.433 27.8852 118.211 27.8852C119.435 27.8852 120.513 27.7104 121.446 27.3606C122.408 26.9818 123.297 26.3989 124.113 25.612L127.741 29.5464C125.526 32.082 122.291 33.3497 118.036 33.3497C115.384 33.3497 113.038 32.8397 110.998 31.8197C108.958 30.7705 107.384 29.3279 106.276 27.4918C105.169 25.6557 104.615 23.5719 104.615 21.2404C104.615 18.938 105.154 16.8688 106.233 15.0327C107.34 13.1675 108.841 11.7249 110.735 10.7048C112.659 9.65563 114.801 9.13104 117.162 9.13104C119.464 9.13104 121.548 9.62649 123.413 10.6174C125.278 11.6083 126.736 13.0363 127.785 14.9016C128.863 16.7376 129.402 18.8797 129.402 21.3278ZM117.205 14.2895C115.661 14.2895 114.364 14.7267 113.315 15.601C112.266 16.4753 111.624 17.6702 111.391 19.1857H122.976C122.743 17.6994 122.102 16.519 121.052 15.6447C120.003 14.7413 118.721 14.2895 117.205 14.2895ZM140.456 12.5846C141.272 11.448 142.365 10.5882 143.735 10.0054C145.134 9.42248 146.737 9.13104 148.544 9.13104V15.4261C147.786 15.3679 147.276 15.3387 147.014 15.3387C145.061 15.3387 143.531 15.8925 142.423 16.9999C141.316 18.0783 140.762 19.7103 140.762 21.8961V33H133.943V9.48076H140.456V12.5846Z" fill="#B99648"/>
</svg>
